<svg version="1.1" id="Layer_1" xmlns="http://www.w3.org/2000/svg" xmlns:xlink="http://www.w3.org/1999/xlink" x="0px" y="0px"
	 width="100%" viewBox="0 0 500 500" enable-background="new 0 0 500 500" xml:space="preserve">
<path fill="#000000" opacity="1.000000" stroke="none" 
	d="
M225.000000,501.000000 
	C150.000015,501.000000 75.500038,501.000000 1.000040,501.000000 
	C1.000027,334.333405 1.000027,167.666779 1.000013,1.000129 
	C167.666565,1.000086 334.333130,1.000086 500.999756,1.000043 
	C500.999847,167.666534 500.999847,334.333069 500.999939,500.999817 
	C409.166656,501.000000 317.333344,501.000000 225.000000,501.000000 
M222.025177,171.308121 
	C221.957230,173.208221 221.889282,175.108337 221.226059,176.726334 
	C217.124100,173.400970 213.022141,170.075623 208.010651,166.012939 
	C208.010651,172.911072 207.937729,178.495911 208.078522,184.075333 
	C208.103592,185.068497 208.771469,186.351837 209.559448,186.968033 
	C213.661041,190.175415 217.897507,193.210312 222.038086,197.202454 
	C222.025284,207.364990 222.748322,217.598862 221.772293,227.668045 
	C220.957016,236.078979 227.429398,238.854752 230.839767,244.029068 
	C231.281189,243.923569 231.722626,243.818054 232.164062,243.712555 
	C232.164062,230.807739 232.164062,217.902908 232.788269,205.246277 
	C235.542145,207.245117 238.296005,209.243958 241.022690,212.148788 
	C241.022690,226.048660 241.022690,239.948547 241.022690,253.681046 
	C261.224915,253.681046 280.632599,253.681046 300.067078,253.681046 
	C300.067078,250.314835 300.067078,247.282242 300.067078,243.997314 
	C289.128296,243.997314 278.643494,243.830704 268.167786,244.066208 
	C262.769196,244.187576 257.386688,245.024475 251.141495,245.619583 
	C251.141495,237.536163 251.141495,228.279602 251.781662,219.282806 
	C255.758392,221.681458 256.308746,216.722931 258.958069,216.867111 
	C258.958069,219.213943 258.958069,221.560776 258.958069,224.195465 
	C266.535919,220.751175 270.693451,216.168991 269.630493,207.859589 
	C286.185394,194.959717 302.740295,182.059830 319.860748,168.719238 
	C319.860748,195.556580 319.860748,221.332062 319.157959,247.030609 
	C317.782104,246.077194 316.406281,245.123795 314.503052,243.804932 
	C314.503052,247.478256 314.503052,250.480087 314.503052,253.739792 
	C316.452148,253.878296 318.210846,254.003250 319.994110,254.987885 
	C319.984467,257.283356 319.974823,259.578796 319.111908,261.966797 
	C317.565887,262.076019 316.019897,262.185242 314.454407,262.295868 
	C314.454407,265.707153 314.454407,268.587982 314.454407,271.744537 
	C316.453857,271.881165 318.208710,272.001068 319.992737,273.005737 
	C319.992737,274.905273 319.992737,276.804779 319.992737,278.709076 
	C325.336426,278.709076 330.040100,278.709076 335.108612,278.709076 
	C335.108612,276.296326 335.108612,274.173889 335.995483,272.012390 
	C339.145538,272.012390 342.295593,272.012390 345.445679,272.012390 
	C345.546997,271.576813 345.648315,271.141205 345.749634,270.705627 
	C342.201874,267.785400 338.654144,264.865204 335.018127,261.018311 
	C335.018127,220.264572 335.018127,179.510849 335.018127,137.689560 
	C330.278290,141.494705 326.300934,144.783890 322.222839,147.943085 
	C311.107727,156.553696 299.995178,165.168900 288.791962,173.663986 
	C282.323975,178.568466 275.682343,183.243912 269.021973,187.086868 
	C269.014984,179.089142 268.529724,171.054581 269.142334,163.104599 
	C269.698547,155.885880 266.506989,152.306763 259.007782,148.786148 
	C259.007782,164.845230 259.007782,180.835709 258.383850,197.137360 
	C256.019012,198.306747 254.700195,202.359238 250.997116,198.970612 
	C251.047302,196.985794 251.097488,195.000992 251.841705,192.509705 
	C251.559692,186.283020 251.277664,180.056335 250.993408,172.914108 
	C250.995865,163.637375 251.001816,154.360641 250.999466,145.083908 
	C250.998093,139.701111 246.923004,134.572708 240.833420,132.664230 
	C240.833420,143.861801 240.833420,154.931046 240.230865,165.728424 
	C237.432907,163.633484 234.634964,161.538544 231.971878,158.455856 
	C231.981613,148.499496 231.994690,138.543152 231.999832,128.586792 
	C232.003006,122.450348 228.724823,118.244156 221.833603,116.155762 
	C221.833603,127.896873 221.833603,139.448853 221.216248,150.723358 
	C210.376038,142.484390 199.535828,134.245438 188.371201,125.759895 
	C188.371201,177.175720 188.371201,227.983994 188.371201,278.751526 
	C193.347992,278.751526 197.948944,278.751526 203.101715,278.751526 
	C203.101715,237.878830 203.101715,197.251221 203.101715,156.261017 
	C209.794342,161.224335 215.948837,165.788574 222.025177,171.308121 
M355.704376,280.013031 
	C325.036896,280.013031 294.369415,280.013031 263.701965,280.013031 
	C263.436340,280.529907 263.170715,281.046783 262.905121,281.563690 
	C264.373016,282.645782 266.461578,283.413513 267.197510,284.866394 
	C269.867706,290.137817 274.296875,290.101074 279.269562,290.073242 
	C306.407043,289.921448 333.545837,290.001312 360.684174,290.001526 
	C362.257690,290.001526 363.831207,290.001526 366.523773,290.001526 
	C362.607758,286.124512 359.571564,283.118561 355.704376,280.013031 
M285.494019,261.996338 
	C273.037170,261.996338 260.580322,261.996338 247.144592,261.996338 
	C249.676559,265.074799 251.212830,267.200745 253.026703,269.055115 
	C254.188843,270.243256 255.748550,271.850891 257.150391,271.871338 
	C271.394257,272.078735 285.642334,271.997986 300.194641,271.997986 
	C300.194641,268.507324 300.194641,265.443085 300.194641,261.996490 
	C295.409027,261.996490 290.949890,261.996490 285.494019,261.996338 
M173.412872,310.952026 
	C169.669159,308.067352 167.205383,308.381531 167.081360,311.934143 
	C166.839142,318.872009 167.010284,325.824310 167.010284,333.042114 
	C169.362442,332.930847 171.090439,332.849121 173.026215,332.757538 
	C173.026215,328.804657 173.026215,325.354004 173.026215,321.151703 
	C176.571243,326.145813 179.233047,323.735229 182.284912,319.899902 
	C182.284912,324.999878 182.284912,328.928711 182.284912,332.774292 
	C183.982239,332.774292 185.263458,332.774292 186.771088,332.774292 
	C186.771088,324.797150 186.771088,317.033661 186.771088,309.285889 
	C180.161194,307.630615 180.028854,313.642914 177.254791,316.898865 
	C176.119843,315.078003 175.012466,313.301361 173.412872,310.952026 
M333.078033,327.421753 
	C332.490723,326.088257 331.903412,324.754730 331.275146,323.328186 
	C336.412170,321.662964 336.070190,316.829010 334.629089,313.895264 
	C331.262817,307.042267 324.390442,309.231812 318.245300,309.132904 
	C318.245300,317.162109 318.245300,324.872986 318.245300,332.723389 
	C319.857147,332.723389 321.242004,332.723389 323.057587,332.723389 
	C323.057587,329.720123 323.057587,326.975861 323.057587,324.231598 
	C323.582336,323.989014 324.107117,323.746429 324.631866,323.503845 
	C326.404449,326.557434 328.177032,329.610992 330.005798,332.761353 
	C331.585388,332.761353 333.475128,332.761353 335.695587,332.761353 
	C334.871338,330.964417 334.195892,329.491974 333.078033,327.421753 
M259.622559,329.868286 
	C260.081299,325.824554 260.869995,321.784515 260.915497,317.736115 
	C260.972809,312.639587 256.625397,308.822632 251.641891,309.001495 
	C245.800201,309.211121 243.066422,312.038971 243.002670,317.961639 
	C242.981201,319.957581 243.052429,321.955658 242.987915,323.949738 
	C242.865936,327.720551 243.144516,331.311768 247.303375,332.967896 
	C251.743057,334.735779 255.854218,334.603577 259.622559,329.868286 
M286.000549,317.785614 
	C285.891571,310.100342 281.258514,307.776123 269.300232,309.504303 
	C269.300232,317.208618 269.300232,324.932404 269.300232,332.674957 
	C270.063019,332.812378 270.535645,332.969238 271.009277,332.972443 
	C285.232849,333.069122 286.532501,334.534302 286.000549,317.785614 
M230.024002,316.756622 
	C231.849655,317.282990 233.675308,317.809357 235.917664,318.455872 
	C236.128616,313.173828 234.211914,310.496948 229.942886,309.430237 
	C225.771561,308.387939 221.770782,308.903656 219.739655,312.878265 
	C216.849548,318.533722 216.660324,324.724823 219.901871,330.316559 
	C222.091125,334.093079 226.003326,334.893524 230.138184,333.364471 
	C233.867355,331.985413 236.714981,329.932800 235.619324,324.743164 
	C233.580795,325.083954 231.759384,325.094238 230.196472,325.735016 
	C228.723648,326.338776 227.523132,327.606750 226.202835,328.582550 
	C225.468842,326.707794 224.534119,324.881348 224.067734,322.942230 
	C223.727005,321.525696 223.915375,319.954712 224.020309,318.463287 
	C224.312851,314.305817 226.196655,313.523682 230.024002,316.756622 
M307.251953,333.000488 
	C309.871765,333.135895 312.088379,332.920868 310.266907,328.850464 
	C306.684875,328.850464 302.929840,328.850464 298.880310,328.850464 
	C299.079224,326.932373 299.224426,325.532227 299.366119,324.166016 
	C302.052917,324.022003 304.334717,323.899719 306.687317,323.773621 
	C306.687317,322.075623 306.687317,320.689941 306.687317,318.808472 
	C303.979401,318.808472 301.571625,318.808472 298.857086,318.808472 
	C299.078796,316.885864 299.238342,315.502350 299.427704,313.860168 
	C303.452545,313.860168 307.081360,313.860168 310.710175,313.860168 
	C311.010284,313.466431 311.310364,313.072693 311.610474,312.678925 
	C310.406982,311.457245 309.292267,309.307068 307.983887,309.181976 
	C303.434540,308.746857 298.818054,309.013885 294.231293,309.013885 
	C294.231293,317.307281 294.231293,324.910034 294.231293,333.000824 
	C298.401276,333.000824 302.355774,333.000824 307.251953,333.000488 
M195.804352,332.855896 
	C201.080490,332.855896 206.356613,332.855896 212.567062,332.855896 
	C210.233185,326.058533 204.205826,331.020782 200.999817,328.008148 
	C200.999817,323.363129 200.975677,318.399872 201.010590,313.437073 
	C201.026657,311.153870 200.973541,308.576111 197.878372,309.209503 
	C196.693604,309.451996 195.189835,311.802185 195.130768,313.245087 
	C194.872955,319.543213 195.092651,325.860931 195.804352,332.855896 
z"/>
<path fill="#FE3131" opacity="1.000000" stroke="none" 
	d="
M319.860748,247.107544 
	C319.860748,221.332062 319.860748,195.556580 319.860748,168.719238 
	C302.740295,182.059830 286.185394,194.959717 268.976868,208.001831 
	C265.159332,210.762543 261.995392,213.381042 258.831482,215.999542 
	C256.308746,216.722931 255.758392,221.681458 251.297546,218.852295 
	C247.558914,216.028778 244.304398,213.635788 241.049881,211.242798 
	C238.296005,209.243958 235.542145,207.245117 232.375809,204.789124 
	C228.671249,201.656403 225.379150,198.980820 222.087036,196.305252 
	C217.897507,193.210312 213.661041,190.175415 209.559448,186.968033 
	C208.771469,186.351837 208.103592,185.068497 208.078522,184.075333 
	C207.937729,178.495911 208.010651,172.911072 208.010651,166.012939 
	C213.022141,170.075623 217.124100,173.400970 221.659210,177.183105 
	C225.403503,180.053665 228.714661,182.467453 232.338867,185.024841 
	C235.324081,187.152817 237.996262,189.137192 240.749969,191.417297 
	C244.217606,194.415344 247.603729,197.117645 250.989838,199.819946 
	C254.700195,202.359238 256.019012,198.306747 259.035095,196.987366 
	C262.830505,193.899063 265.974670,190.960754 269.118866,188.022461 
	C275.682343,183.243912 282.323975,178.568466 288.791962,173.663986 
	C299.995178,165.168900 311.107727,156.553696 322.222839,147.943085 
	C326.300934,144.783890 330.278290,141.494705 335.018127,137.689560 
	C335.018127,179.510849 335.018127,220.264572 334.887634,261.913940 
	C334.874268,265.890198 334.991455,268.970825 335.108612,272.051453 
	C335.108612,274.173889 335.108612,276.296326 335.108612,278.709076 
	C330.040100,278.709076 325.336426,278.709076 319.992737,278.709076 
	C319.992737,276.804779 319.992737,274.905273 320.291138,272.287292 
	C320.381439,268.337311 320.173309,265.105804 319.965179,261.874268 
	C319.974823,259.578796 319.984467,257.283356 320.278168,254.323944 
	C320.328400,251.475861 320.094574,249.291702 319.860748,247.107544 
z"/>
<path fill="#FE3131" opacity="1.000000" stroke="none" 
	d="
M231.837021,159.443604 
	C234.634964,161.538544 237.432907,163.633484 240.664902,166.182220 
	C244.397842,169.033875 247.696747,171.431763 250.995651,173.829651 
	C251.277664,180.056335 251.559692,186.283020 251.326172,192.466125 
	C247.545639,190.010422 244.280640,187.598312 240.703552,185.031693 
	C237.653931,182.915054 234.916412,180.952927 232.080887,178.657242 
	C228.689682,175.666733 225.396500,173.009781 222.103333,170.352814 
	C215.948837,165.788574 209.794342,161.224335 203.101715,156.261017 
	C203.101715,197.251221 203.101715,237.878830 203.101715,278.751526 
	C197.948944,278.751526 193.347992,278.751526 188.371201,278.751526 
	C188.371201,227.983994 188.371201,177.175720 188.371201,125.759895 
	C199.535828,134.245438 210.376038,142.484390 221.635712,151.190216 
	C225.315796,154.252579 228.576416,156.848083 231.837021,159.443604 
z"/>
<path fill="#0E4BEA" opacity="1.000000" stroke="none" 
	d="
M356.119873,280.062805 
	C359.571564,283.118561 362.607758,286.124512 366.523773,290.001526 
	C363.831207,290.001526 362.257690,290.001526 360.684174,290.001526 
	C333.545837,290.001312 306.407043,289.921448 279.269562,290.073242 
	C274.296875,290.101074 269.867706,290.137817 267.197510,284.866394 
	C266.461578,283.413513 264.373016,282.645782 262.905121,281.563690 
	C263.170715,281.046783 263.436340,280.529907 263.701965,280.013031 
	C294.369415,280.013031 325.036896,280.013031 356.119873,280.062805 
z"/>
<path fill="#0D4BE9" opacity="1.000000" stroke="none" 
	d="
M241.036285,211.695801 
	C244.304398,213.635788 247.558914,216.028778 250.977478,218.722397 
	C251.141495,228.279602 251.141495,237.536163 251.141495,245.619583 
	C257.386688,245.024475 262.769196,244.187576 268.167786,244.066208 
	C278.643494,243.830704 289.128296,243.997314 300.067078,243.997314 
	C300.067078,247.282242 300.067078,250.314835 300.067078,253.681046 
	C280.632599,253.681046 261.224915,253.681046 241.022690,253.681046 
	C241.022690,239.948547 241.022690,226.048660 241.036285,211.695801 
z"/>
<path fill="#0D4BE9" opacity="1.000000" stroke="none" 
	d="
M285.992401,261.996399 
	C290.949890,261.996490 295.409027,261.996490 300.194641,261.996490 
	C300.194641,265.443085 300.194641,268.507324 300.194641,271.997986 
	C285.642334,271.997986 271.394257,272.078735 257.150391,271.871338 
	C255.748550,271.850891 254.188843,270.243256 253.026703,269.055115 
	C251.212830,267.200745 249.676559,265.074799 247.144592,261.996338 
	C260.580322,261.996338 273.037170,261.996338 285.992401,261.996399 
z"/>
<path fill="#0E4BEA" opacity="1.000000" stroke="none" 
	d="
M269.070435,187.554657 
	C265.974670,190.960754 262.830505,193.899063 259.347046,196.831772 
	C259.007782,180.835709 259.007782,164.845230 259.007782,148.786148 
	C266.506989,152.306763 269.698547,155.885880 269.142334,163.104599 
	C268.529724,171.054581 269.014984,179.089142 269.070435,187.554657 
z"/>
<path fill="#0E4BEA" opacity="1.000000" stroke="none" 
	d="
M222.062561,196.753845 
	C225.379150,198.980820 228.671249,201.656403 232.063705,204.665039 
	C232.164062,217.902908 232.164062,230.807739 232.164062,243.712555 
	C231.722626,243.818054 231.281189,243.923569 230.839767,244.029068 
	C227.429398,238.854752 220.957016,236.078979 221.772293,227.668045 
	C222.748322,217.598862 222.025284,207.364990 222.062561,196.753845 
z"/>
<path fill="#0E4BEA" opacity="1.000000" stroke="none" 
	d="
M231.904449,158.949738 
	C228.576416,156.848083 225.315796,154.252579 221.944397,151.328949 
	C221.833603,139.448853 221.833603,127.896873 221.833603,116.155762 
	C228.724823,118.244156 232.003006,122.450348 231.999832,128.586792 
	C231.994690,138.543152 231.981613,148.499496 231.904449,158.949738 
z"/>
<path fill="#0E4BEA" opacity="1.000000" stroke="none" 
	d="
M250.994537,173.371887 
	C247.696747,171.431763 244.397842,169.033875 240.966187,166.318146 
	C240.833420,154.931046 240.833420,143.861801 240.833420,132.664230 
	C246.923004,134.572708 250.998093,139.701111 250.999466,145.083908 
	C251.001816,154.360641 250.995865,163.637375 250.994537,173.371887 
z"/>
<path fill="#FE3131" opacity="1.000000" stroke="none" 
	d="
M173.658966,311.238373 
	C175.012466,313.301361 176.119843,315.078003 177.254791,316.898865 
	C180.028854,313.642914 180.161194,307.630615 186.771088,309.285889 
	C186.771088,317.033661 186.771088,324.797150 186.771088,332.774292 
	C185.263458,332.774292 183.982239,332.774292 182.284912,332.774292 
	C182.284912,328.928711 182.284912,324.999878 182.284912,319.899902 
	C179.233047,323.735229 176.571243,326.145813 173.026215,321.151703 
	C173.026215,325.354004 173.026215,328.804657 173.026215,332.757538 
	C171.090439,332.849121 169.362442,332.930847 167.010284,333.042114 
	C167.010284,325.824310 166.839142,318.872009 167.081360,311.934143 
	C167.205383,308.381531 169.669159,308.067352 173.658966,311.238373 
z"/>
<path fill="#FE3131" opacity="1.000000" stroke="none" 
	d="
M333.299255,327.720642 
	C334.195892,329.491974 334.871338,330.964417 335.695587,332.761353 
	C333.475128,332.761353 331.585388,332.761353 330.005798,332.761353 
	C328.177032,329.610992 326.404449,326.557434 324.631866,323.503845 
	C324.107117,323.746429 323.582336,323.989014 323.057587,324.231598 
	C323.057587,326.975861 323.057587,329.720123 323.057587,332.723389 
	C321.242004,332.723389 319.857147,332.723389 318.245300,332.723389 
	C318.245300,324.872986 318.245300,317.162109 318.245300,309.132904 
	C324.390442,309.231812 331.262817,307.042267 334.629089,313.895264 
	C336.070190,316.829010 336.412170,321.662964 331.275146,323.328186 
	C331.903412,324.754730 332.490723,326.088257 333.299255,327.720642 
M327.919189,318.955017 
	C328.464478,318.022583 329.009766,317.090149 329.555054,316.157715 
	C327.618683,315.262115 325.682312,314.366486 323.617096,313.411285 
	C322.238281,318.111267 323.540436,319.538300 327.919189,318.955017 
z"/>
<path fill="#FE3131" opacity="1.000000" stroke="none" 
	d="
M259.357117,330.178955 
	C255.854218,334.603577 251.743057,334.735779 247.303375,332.967896 
	C243.144516,331.311768 242.865936,327.720551 242.987915,323.949738 
	C243.052429,321.955658 242.981201,319.957581 243.002670,317.961639 
	C243.066422,312.038971 245.800201,309.211121 251.641891,309.001495 
	C256.625397,308.822632 260.972809,312.639587 260.915497,317.736115 
	C260.869995,321.784515 260.081299,325.824554 259.357117,330.178955 
M248.039001,318.116241 
	C248.036102,320.607239 247.611450,323.202850 248.193222,325.548859 
	C248.526398,326.892426 250.376694,328.451294 251.772415,328.718109 
	C252.610413,328.878326 254.486618,326.895447 254.830292,325.594177 
	C255.363983,323.573425 255.378616,321.217804 254.883148,319.181824 
	C254.438416,317.354309 253.009415,315.766296 252.014603,314.072632 
	C250.754562,315.146942 249.494522,316.221252 248.039001,318.116241 
z"/>
<path fill="#FE3131" opacity="1.000000" stroke="none" 
	d="
M286.000549,318.248047 
	C286.532501,334.534302 285.232849,333.069122 271.009277,332.972443 
	C270.535645,332.969238 270.063019,332.812378 269.300232,332.674957 
	C269.300232,324.932404 269.300232,317.208618 269.300232,309.504303 
	C281.258514,307.776123 285.891571,310.100342 286.000549,318.248047 
M280.999390,321.440552 
	C280.973663,315.011871 280.098053,314.082428 274.193848,314.412415 
	C274.193848,319.148315 274.193848,323.893768 274.193848,328.778656 
	C279.350983,329.416870 281.161774,326.897827 280.999390,321.440552 
z"/>
<path fill="#FE3131" opacity="1.000000" stroke="none" 
	d="
M229.981567,316.352844 
	C226.196655,313.523682 224.312851,314.305817 224.020309,318.463287 
	C223.915375,319.954712 223.727005,321.525696 224.067734,322.942230 
	C224.534119,324.881348 225.468842,326.707794 226.202835,328.582550 
	C227.523132,327.606750 228.723648,326.338776 230.196472,325.735016 
	C231.759384,325.094238 233.580795,325.083954 235.619324,324.743164 
	C236.714981,329.932800 233.867355,331.985413 230.138184,333.364471 
	C226.003326,334.893524 222.091125,334.093079 219.901871,330.316559 
	C216.660324,324.724823 216.849548,318.533722 219.739655,312.878265 
	C221.770782,308.903656 225.771561,308.387939 229.942886,309.430237 
	C234.211914,310.496948 236.128616,313.173828 235.917664,318.455872 
	C233.675308,317.809357 231.849655,317.282990 229.981567,316.352844 
z"/>
<path fill="#FE3131" opacity="1.000000" stroke="none" 
	d="
M306.781097,333.000671 
	C302.355774,333.000824 298.401276,333.000824 294.231293,333.000824 
	C294.231293,324.910034 294.231293,317.307281 294.231293,309.013885 
	C298.818054,309.013885 303.434540,308.746857 307.983887,309.181976 
	C309.292267,309.307068 310.406982,311.457245 311.610474,312.678925 
	C311.310364,313.072693 311.010284,313.466431 310.710175,313.860168 
	C307.081360,313.860168 303.452545,313.860168 299.427704,313.860168 
	C299.238342,315.502350 299.078796,316.885864 298.857086,318.808472 
	C301.571625,318.808472 303.979401,318.808472 306.687317,318.808472 
	C306.687317,320.689941 306.687317,322.075623 306.687317,323.773621 
	C304.334717,323.899719 302.052917,324.022003 299.366119,324.166016 
	C299.224426,325.532227 299.079224,326.932373 298.880310,328.850464 
	C302.929840,328.850464 306.684875,328.850464 310.266907,328.850464 
	C312.088379,332.920868 309.871765,333.135895 306.781097,333.000671 
z"/>
<path fill="#FE3131" opacity="1.000000" stroke="none" 
	d="
M195.471649,332.513702 
	C195.092651,325.860931 194.872955,319.543213 195.130768,313.245087 
	C195.189835,311.802185 196.693604,309.451996 197.878372,309.209503 
	C200.973541,308.576111 201.026657,311.153870 201.010590,313.437073 
	C200.975677,318.399872 200.999817,323.363129 200.999817,328.008148 
	C204.205826,331.020782 210.233185,326.058533 212.567062,332.855896 
	C206.356613,332.855896 201.080490,332.855896 195.471649,332.513702 
z"/>
<path fill="#164AE4" opacity="1.000000" stroke="none" 
	d="
M258.894775,216.433319 
	C261.995392,213.381042 265.159332,210.762543 268.664551,208.153595 
	C270.693451,216.168991 266.535919,220.751175 258.958069,224.195465 
	C258.958069,221.560776 258.958069,219.213943 258.894775,216.433319 
z"/>
<path fill="#164AE4" opacity="1.000000" stroke="none" 
	d="
M241.015640,185.186203 
	C244.280640,187.598312 247.545639,190.010422 250.979156,192.719360 
	C251.097488,195.000992 251.047302,196.985794 250.993469,199.395279 
	C247.603729,197.117645 244.217606,194.415344 240.879944,191.070328 
	C240.957474,188.680481 240.986557,186.933334 241.015640,185.186203 
z"/>
<path fill="#164AE4" opacity="1.000000" stroke="none" 
	d="
M222.064255,170.830475 
	C225.396500,173.009781 228.689682,175.666733 232.013092,179.073547 
	C232.037506,181.509354 232.031662,183.195282 232.025818,184.881226 
	C228.714661,182.467453 225.403503,180.053665 221.956848,177.324158 
	C221.889282,175.108337 221.957230,173.208221 222.064255,170.830475 
z"/>
<path fill="#164AE4" opacity="1.000000" stroke="none" 
	d="
M319.538544,261.920532 
	C320.173309,265.105804 320.381439,268.337311 320.276550,271.844910 
	C318.208710,272.001068 316.453857,271.881165 314.454407,271.744537 
	C314.454407,268.587982 314.454407,265.707153 314.454407,262.295868 
	C316.019897,262.185242 317.565887,262.076019 319.538544,261.920532 
z"/>
<path fill="#0D4BE9" opacity="1.000000" stroke="none" 
	d="
M335.552063,272.031921 
	C334.991455,268.970825 334.874268,265.890198 334.931763,262.377289 
	C338.654144,264.865204 342.201874,267.785400 345.749634,270.705627 
	C345.648315,271.141205 345.546997,271.576813 345.445679,272.012390 
	C342.295593,272.012390 339.145538,272.012390 335.552063,272.031921 
z"/>
<path fill="#164AE4" opacity="1.000000" stroke="none" 
	d="
M319.509338,247.069077 
	C320.094574,249.291702 320.328400,251.475861 320.265869,253.894119 
	C318.210846,254.003250 316.452148,253.878296 314.503052,253.739792 
	C314.503052,250.480087 314.503052,247.478256 314.503052,243.804932 
	C316.406281,245.123795 317.782104,246.077194 319.509338,247.069077 
z"/>
<path fill="#000000" opacity="1.000000" stroke="none" 
	d="
M232.338852,185.024841 
	C232.031662,183.195282 232.037506,181.509354 232.111115,179.407104 
	C234.916412,180.952927 237.653931,182.915054 240.703552,185.031693 
	C240.986557,186.933334 240.957474,188.680481 240.798431,190.774597 
	C237.996262,189.137192 235.324081,187.152817 232.338852,185.024841 
z"/>
<path fill="#000000" opacity="1.000000" stroke="none" 
	d="
M327.499756,318.973755 
	C323.540436,319.538300 322.238281,318.111267 323.617096,313.411285 
	C325.682312,314.366486 327.618683,315.262115 329.555054,316.157715 
	C329.009766,317.090149 328.464478,318.022583 327.499756,318.973755 
z"/>
<path fill="#000000" opacity="1.000000" stroke="none" 
	d="
M248.136749,317.705902 
	C249.494522,316.221252 250.754562,315.146942 252.014603,314.072632 
	C253.009415,315.766296 254.438416,317.354309 254.883148,319.181824 
	C255.378616,321.217804 255.363983,323.573425 254.830292,325.594177 
	C254.486618,326.895447 252.610413,328.878326 251.772415,328.718109 
	C250.376694,328.451294 248.526398,326.892426 248.193222,325.548859 
	C247.611450,323.202850 248.036102,320.607239 248.136749,317.705902 
z"/>
<path fill="#000000" opacity="1.000000" stroke="none" 
	d="
M280.999298,321.877991 
	C281.161774,326.897827 279.350983,329.416870 274.193848,328.778656 
	C274.193848,323.893768 274.193848,319.148315 274.193848,314.412415 
	C280.098053,314.082428 280.973663,315.011871 280.999298,321.877991 
z"/>
</svg>